# xmcd
#
# Track frame offsets:
# 150
# 16400
# 35897
# 57405
# 75952
# 80750
# 97375
# 117420
# 138655
# 140682
# 168182
# 187462
# 190855
# 204862
# 218965
#
# Disc length: 3119 seconds
#
# Revision: 0
# Processed by: cddbd v1.5.1PL2 Copyright (c) Steve Scherf et al.
# Submitted via: Audion 3.0.2 (http://www.panic.com/audion/)
#
DISCID=e60c2d0f
DTITLE=Jalapeno Brothers - Jalapeno Brothers
DYEAR=1900
DGENRE=
TTITLE0=Stand Up
TTITLE1=Nothing You Can Do
TTITLE2=Seduction of Ron Jeremy
TTITLE3=How Do You Make Love Stay
TTITLE4=Couch Potato
TTITLE5=Home
TTITLE6=Lonely Girl
TTITLE7=Bitter End
TTITLE8=Hoss, Get Off the Babysitter
TTITLE9=Back To You
TTITLE10=Pink Flamingos
TTITLE11=Jerk Rotini
TTITLE12=Let It Roll On
TTITLE13=Why You Do What You Do
TTITLE14=Don't You Know
EXTD=
EXTT0=
EXTT1=
EXTT2=
EXTT3=
EXTT4=
EXTT5=
EXTT6=
EXTT7=
EXTT8=
EXTT9=
EXTT10=
EXTT11=
EXTT12=
EXTT13=
EXTT14=
PLAYORDER=
